<?xml version="1.0" standalone="no"?>
<!DOCTYPE svg PUBLIC "-//W3C//DTD SVG 20010904//EN"
 "http://www.w3.org/TR/2001/REC-SVG-20010904/DTD/svg10.dtd">
<svg version="1.0" xmlns="http://www.w3.org/2000/svg"
 width="64.000000pt" height="64.000000pt" viewBox="0 0 64.000000 64.000000"
 preserveAspectRatio="xMidYMid meet">

<g transform="translate(0.000000,64.000000) scale(0.100000,-0.100000)"
fill="#000000" stroke="none">
<path d="M150 560 c-11 -11 -20 -33 -20 -49 0 -37 35 -81 65 -81 30 0 65 44
65 81 0 36 -32 69 -65 69 -14 0 -34 -9 -45 -20z"/>
<path d="M457 489 c-21 -11 -43 -31 -49 -44 -6 -14 -18 -25 -26 -25 -12 0 -12
-3 -2 -15 10 -12 37 -15 120 -15 83 0 110 3 120 15 10 12 10 15 -2 15 -8 0
-20 11 -26 25 -6 13 -29 33 -51 45 -47 24 -37 24 -84 -1z"/>
<path d="M100 377 c-34 -12 -35 -14 -54 -101 l-20 -89 24 -19 c24 -19 24 -19
31 0 11 30 26 35 64 22 30 -10 33 -14 25 -30 -6 -10 -10 -32 -10 -49 0 -24 4
-31 19 -31 11 0 23 5 26 10 5 8 11 8 20 0 8 -7 28 -9 47 -5 l34 6 -4 92 -5 91
36 -27 c20 -15 40 -27 44 -27 13 0 109 100 98 101 -6 0 11 7 38 15 26 8 47 19
47 24 0 6 -25 10 -55 10 -47 0 -59 -4 -90 -31 l-35 -31 -45 41 c-63 58 -81 55
-95 -16 -18 -93 -20 -94 -56 -15 -18 39 -37 72 -41 71 -4 0 -24 -5 -43 -12z"/>
</g>
</svg>
